<svg width="29" height="29" viewBox="0 0 29 29" fill="none" xmlns="http://www.w3.org/2000/svg">
<path d="M14.5 28.3H14.5003C18.159 28.296 21.6666 26.8408 24.2537 24.2537C26.8408 21.6666 28.296 18.159 28.3 14.5003V14.5C28.3 11.7706 27.4906 9.10253 25.9743 6.83314C24.4579 4.56374 22.3027 2.79496 19.781 1.75047C17.2594 0.705979 14.4847 0.432693 11.8078 0.965169C9.13082 1.49765 6.6719 2.81197 4.74193 4.74193C2.81197 6.6719 1.49765 9.13082 0.965169 11.8078C0.432693 14.4847 0.705979 17.2594 1.75047 19.781C2.79496 22.3027 4.56374 24.4579 6.83314 25.9743C9.10253 27.4906 11.7706 28.3 14.5 28.3ZM7.92148 4.65455C9.86869 3.35346 12.158 2.659 14.4999 2.65898C17.6393 2.66254 20.649 3.91123 22.8689 6.1311C25.0888 8.35103 26.3375 11.3609 26.341 14.5003C26.341 16.8422 25.6465 19.1314 24.3455 21.0785C23.0444 23.0258 21.195 24.5435 19.0314 25.4397C16.8677 26.3359 14.4869 26.5704 12.1899 26.1135C9.893 25.6566 7.78313 24.5289 6.12713 22.8729C4.47113 21.2169 3.34339 19.107 2.8865 16.8101C2.42961 14.5131 2.6641 12.1323 3.56032 9.96864C4.45654 7.80497 5.97423 5.95566 7.92148 4.65455Z" fill="black" fill-opacity="0.5" stroke="#808080" stroke-width="0.6"/>
</svg>
