<svg width="12" height="12" viewBox="0 0 12 12" fill="none" xmlns="http://www.w3.org/2000/svg">
<path d="M8.01423 6L11.7147 2.29951C12.0951 1.91913 12.0951 1.30244 11.7147 0.922073L11.0779 0.285279C10.6976 -0.0950929 10.0809 -0.0950929 9.70049 0.285279L6 3.98577L2.29951 0.285279C1.91913 -0.0950929 1.30244 -0.0950929 0.922073 0.285279L0.285279 0.922073C-0.0950929 1.30244 -0.0950929 1.91913 0.285279 2.29951L3.98577 6L0.285279 9.70049C-0.0950929 10.0809 -0.0950929 10.6976 0.285279 11.0779L0.922073 11.7147C1.30244 12.0951 1.91913 12.0951 2.29951 11.7147L6 8.01423L9.70049 11.7147C10.0809 12.0951 10.6976 12.0951 11.0779 11.7147L11.7147 11.0779C12.0951 10.6976 12.0951 10.0809 11.7147 9.70049L8.01423 6Z" fill="#FF473E" fill-opacity="0.7"/>
</svg>
