<svg width="27" height="26" viewBox="0 0 27 26" fill="none" xmlns="http://www.w3.org/2000/svg">
<path d="M1 21.875C1 20.2174 1.65848 18.6277 2.83058 17.4556C4.00268 16.2835 8.8424 14 10.5 14L13 2.50002L16 14C17.6576 14 22.9973 16.2835 24.1694 17.4556C25.3415 18.6277 26 20.2174 26 21.875C26 22.7038 25.6708 23.4987 25.0847 24.0847C24.4987 24.6708 23.7038 25 22.875 25H4.125C3.2962 25 2.50134 24.6708 1.91529 24.0847C1.32924 23.4987 1 22.7038 1 21.875Z" fill="#3846CD" stroke="#3846CD" stroke-width="2" stroke-linejoin="round"/>
<path d="M13.0005 12C15.4858 12 17.5005 9.53757 17.5005 6.5C17.5005 3.46243 15.4858 1 13.0005 1C10.5152 1 8.50049 3.46243 8.50049 6.5C8.50049 9.53757 10.5152 12 13.0005 12Z" fill="#3846CD" stroke="#3846CD" stroke-width="2"/>
</svg>
