<svg width="24" height="24" viewBox="0 0 24 24" fill="none" xmlns="http://www.w3.org/2000/svg">
<path d="M23.7665 9.64976H22.7999V9.59996H12V14.3999H18.7817C17.7923 17.1941 15.1337 19.1999 12 19.1999C8.02377 19.1999 4.79998 15.9761 4.79998 12C4.79998 8.02377 8.02377 4.79998 12 4.79998C13.8353 4.79998 15.5051 5.49238 16.7765 6.62337L20.1707 3.22919C18.0275 1.2318 15.1607 0 12 0C5.37298 0 0 5.37298 0 12C0 18.6269 5.37298 23.9999 12 23.9999C18.6269 23.9999 23.9999 18.6269 23.9999 12C23.9999 11.1954 23.9171 10.41 23.7665 9.64976Z" fill="#FFC107"/>
<path d="M1.38428 6.41458L5.32686 9.30597C6.39366 6.66478 8.97725 4.79998 12.0006 4.79998C13.836 4.79998 15.5058 5.49238 16.7772 6.62337L20.1714 3.22919C18.0282 1.2318 15.1614 0 12.0006 0C7.39145 0 3.39427 2.60219 1.38428 6.41458Z" fill="#FF3D00"/>
<path d="M12.0013 23.9999C15.1009 23.9999 17.9173 22.8137 20.0467 20.8847L16.3327 17.7419C15.0874 18.689 13.5658 19.2012 12.0013 19.1999C8.88013 19.1999 6.22994 17.2097 5.23154 14.4323L1.31836 17.4473C3.30435 21.3335 7.33754 23.9999 12.0013 23.9999Z" fill="#4CAF50"/>
<path d="M23.7666 9.64987H22.8V9.60007H12V14.4001H18.7818C18.3085 15.7299 17.456 16.8919 16.3296 17.7426L16.3314 17.7414L20.0454 20.8842C19.7826 21.123 24 18 24 12.0001C24 11.1955 23.9172 10.4101 23.7666 9.64987Z" fill="#1976D2"/>
</svg>
