<svg width="27" height="25" viewBox="0 0 27 25" fill="none" xmlns="http://www.w3.org/2000/svg">
<path d="M13.635 20.9925L13.5 21.1275L13.3515 20.9925C6.939 15.174 2.7 11.3265 2.7 7.425C2.7 4.725 4.725 2.7 7.425 2.7C9.504 2.7 11.529 4.05 12.2445 5.886H14.7555C15.471 4.05 17.496 2.7 19.575 2.7C22.275 2.7 24.3 4.725 24.3 7.425C24.3 11.3265 20.061 15.174 13.635 20.9925ZM19.575 0C17.226 0 14.9715 1.0935 13.5 2.808C12.0285 1.0935 9.774 0 7.425 0C3.267 0 0 3.2535 0 7.425C0 12.5145 4.59 16.686 11.5425 22.9905L13.5 24.7725L15.4575 22.9905C22.41 16.686 27 12.5145 27 7.425C27 3.2535 23.733 0 19.575 0Z" fill="black" fill-opacity="0.5"/>
</svg>
