<svg width="160" height="160" viewBox="0 0 160 160" fill="none" xmlns="http://www.w3.org/2000/svg">
<path d="M160 122.367H0V122.447H160V122.367Z" fill="#EBEBEB"/>
<path d="M27.3862 127.518H16.7871V127.598H27.3862V127.518Z" fill="#EBEBEB"/>
<path d="M57.5464 128.387H54.7646V128.467H57.5464V128.387Z" fill="#EBEBEB"/>
<path d="M35.8398 124.547H27.7061V124.627H35.8398V124.547Z" fill="#EBEBEB"/>
<path d="M143.968 125.084H135.04V125.164H143.968V125.084Z" fill="#EBEBEB"/>
<path d="M132.191 125.084H125.271V125.164H132.191V125.084Z" fill="#EBEBEB"/>
<path d="M105.173 126.436H88.708V126.516H105.173V126.436Z" fill="#EBEBEB"/>
<path d="M75.8443 108.096H14.0526C13.0456 108.096 12.2261 107.277 12.2261 106.269V19.4112C12.2261 18.4042 13.0456 17.5847 14.0526 17.5847H75.8443C76.851 17.5847 77.6706 18.4042 77.6706 19.4112V106.269C77.6706 107.277 76.851 108.096 75.8443 108.096ZM14.0526 17.665C13.0894 17.665 12.3061 18.4483 12.3061 19.4115V106.27C12.3061 107.233 13.0894 108.016 14.0526 108.016H75.8443C76.8072 108.016 77.5906 107.233 77.5906 106.27V19.4112C77.5906 18.4483 76.8072 17.6647 75.8443 17.6647L14.0526 17.665Z" fill="#EBEBEB"/>
<path d="M145.059 108.096H83.2676C82.2606 108.096 81.4414 107.277 81.4414 106.269V19.4112C81.4414 18.4042 82.2609 17.5847 83.2676 17.5847H145.059C146.066 17.5847 146.886 18.4042 146.886 19.4112V106.269C146.886 107.277 146.066 108.096 145.059 108.096ZM83.2676 17.665C82.3048 17.665 81.5214 18.4483 81.5214 19.4115V106.27C81.5214 107.233 82.3048 108.016 83.2676 108.016H145.059C146.022 108.016 146.806 107.233 146.806 106.27V19.4112C146.806 18.4483 146.022 17.6647 145.059 17.6647L83.2676 17.665Z" fill="#EBEBEB"/>
<path d="M36.9645 79.04H26.6499V122.367H44.4413V86.5168L36.9645 79.04Z" fill="#E0E0E0"/>
<path d="M34.1266 86.5168H19.1733V122.368H34.1266V86.5168Z" fill="#EBEBEB"/>
<path d="M34.1266 86.5168H19.1733V87.1069H34.1266V86.5168Z" fill="#E0E0E0"/>
<path d="M26.6501 79.04L19.1733 86.5168H34.1266L26.6501 79.04Z" fill="#EBEBEB"/>
<path d="M24.3905 91.2009H21.6743V93.9171H24.3905V91.2009Z" fill="#E0E0E0"/>
<path d="M30.3592 91.2009H27.6431V93.9171H30.3592V91.2009Z" fill="#E0E0E0"/>
<path d="M24.3905 98.9865H21.6743V101.703H24.3905V98.9865Z" fill="#E0E0E0"/>
<path d="M30.3592 98.9865H27.6431V101.703H30.3592V98.9865Z" fill="#E0E0E0"/>
<path d="M24.3905 106.772H21.6743V109.488H24.3905V106.772Z" fill="#E0E0E0"/>
<path d="M30.3592 106.772H27.6431V109.488H30.3592V106.772Z" fill="#E0E0E0"/>
<path d="M24.3905 114.557H21.6743V117.274H24.3905V114.557Z" fill="#E0E0E0"/>
<path d="M30.3592 114.557H27.6431V117.274H30.3592V114.557Z" fill="#E0E0E0"/>
<path d="M41.5931 79.6198H39.1519V84.5027H41.5931V79.6198Z" fill="#E0E0E0"/>
<path d="M94.9406 73.3353H82.188V122.367H104.184V82.5792L94.9406 73.3353Z" fill="#E0E0E0"/>
<path d="M91.4317 82.5792H72.9443V122.368H91.4317V82.5792Z" fill="#EBEBEB"/>
<path d="M91.4317 82.5792H72.9443V83.3088H91.4317V82.5792Z" fill="#E0E0E0"/>
<path d="M82.1882 73.3353L72.9443 82.5792H91.4317L82.1882 73.3353Z" fill="#EBEBEB"/>
<path d="M102.837 88.5356H94.7759V122.367H112.08V97.7795L102.837 88.5356Z" fill="#E0E0E0"/>
<path d="M94.7759 88.5356V97.7795V122.367H104.02V97.7795L94.7759 88.5356Z" fill="#EBEBEB"/>
<path d="M83.292 90.6384H81.084V95.3388H83.292V90.6384Z" fill="#E0E0E0"/>
<path d="M88.1684 90.6384H85.9604V95.3388H88.1684V90.6384Z" fill="#E0E0E0"/>
<path d="M83.292 99.5769H81.084V104.277H83.292V99.5769Z" fill="#E0E0E0"/>
<path d="M88.1684 99.5769H85.9604V104.277H88.1684V99.5769Z" fill="#E0E0E0"/>
<path d="M83.292 108.516H81.084V113.216H83.292V108.516Z" fill="#E0E0E0"/>
<path d="M78.4155 90.6384H76.2075V95.3388H78.4155V90.6384Z" fill="#E0E0E0"/>
<path d="M78.4155 99.5769H76.2075V104.277H78.4155V99.5769Z" fill="#E0E0E0"/>
<path d="M78.4155 108.516H76.2075V113.216H78.4155V108.516Z" fill="#E0E0E0"/>
<path d="M88.1684 108.516H85.9604V113.216H88.1684V108.516Z" fill="#E0E0E0"/>
<path d="M99.6172 99.5769H97.4092V104.277H99.6172V99.5769Z" fill="#E0E0E0"/>
<path d="M99.6172 108.516H97.4092V113.216H99.6172V108.516Z" fill="#E0E0E0"/>
<path d="M59.8463 88.9702H48.2422V122.367H68.2575V97.3814L59.8463 88.9702Z" fill="#E0E0E0"/>
<path d="M56.6535 97.3814H39.8311V122.367H56.6535V97.3814Z" fill="#EBEBEB"/>
<path d="M56.6535 97.3814H39.8311V98.0451H56.6535V97.3814Z" fill="#E0E0E0"/>
<path d="M48.2423 88.9702L39.8311 97.3814H56.6535L48.2423 88.9702Z" fill="#EBEBEB"/>
<path d="M45.7002 102.651H42.6445V105.707H45.7002V102.651Z" fill="#E0E0E0"/>
<path d="M52.4151 102.651H49.3594V105.707H52.4151V102.651Z" fill="#E0E0E0"/>
<path d="M45.7002 111.41H42.6445V114.466H45.7002V111.41Z" fill="#E0E0E0"/>
<path d="M52.4151 111.41H49.3594V114.466H52.4151V111.41Z" fill="#E0E0E0"/>
<path d="M50.0904 85.2739H46.394V92.6665H50.0904V85.2739Z" fill="#EBEBEB"/>
<path d="M131.967 95.8253H119.819V122.367H140.773V102.51L131.967 95.8253Z" fill="#E0E0E0"/>
<path d="M128.625 102.51H111.013V122.367H128.625V102.51Z" fill="#EBEBEB"/>
<path d="M128.625 102.51H111.013V103.037H128.625V102.51Z" fill="#E0E0E0"/>
<path d="M119.819 95.8253L111.013 102.51H128.625L119.819 95.8253Z" fill="#EBEBEB"/>
<path d="M115.337 105.741H113.735V109.188H115.337V105.741Z" fill="#E0E0E0"/>
<path d="M118.859 105.741H117.257V109.188H118.859V105.741Z" fill="#E0E0E0"/>
<path d="M115.337 113.767H113.735V117.214H115.337V113.767Z" fill="#E0E0E0"/>
<path d="M118.859 113.767H117.257V117.214H118.859V113.767Z" fill="#E0E0E0"/>
<path d="M122.381 105.741H120.779V109.188H122.381V105.741Z" fill="#E0E0E0"/>
<path d="M125.903 105.741H124.301V109.188H125.903V105.741Z" fill="#E0E0E0"/>
<path d="M122.381 113.767H120.779V117.214H122.381V113.767Z" fill="#E0E0E0"/>
<path d="M125.903 113.767H124.301V117.214H125.903V113.767Z" fill="#E0E0E0"/>
<path d="M133.959 92.8876H130.089V98.7628H133.959V92.8876Z" fill="#E0E0E0"/>
<path d="M64.4125 37.2348C65.6995 29.3049 60.3144 21.8332 52.3845 20.5463C44.4547 19.2593 36.9829 24.6444 35.696 32.5743C34.409 40.5041 39.7941 47.9758 47.724 49.2628C55.6539 50.5498 63.1256 45.1647 64.4125 37.2348Z" fill="#FAFAFA"/>
<path d="M109.01 48.0432C111.189 44.7053 114.774 42.329 118.076 42.329C120.147 42.329 121.726 43.2643 122.616 44.7872C123.817 43.9191 125.162 43.3987 126.442 43.3987C128.695 43.3987 130.1 45.0064 130.138 47.2746C131.262 46.769 132.443 46.4589 133.591 46.4093C135.855 46.3069 137.49 47.2307 138.171 48.7331C138.634 48.4816 139.138 48.3239 139.628 48.3005C140.932 48.2419 141.628 49.1744 141.187 50.3815C141.159 50.4576 141.128 50.5306 141.097 50.6035H138.516H136.463H129.331H125.822H123.093H118.889H118.127H107.7H104.625C104.724 49.4205 107.391 48.1027 109.01 48.0432Z" fill="#FAFAFA"/>
<path d="M105.649 29.544C106.66 27.9955 108.323 26.8928 109.856 26.8928C110.816 26.8928 111.549 27.3267 111.962 28.0333C112.519 27.6304 113.143 27.3891 113.737 27.3891C114.782 27.3891 115.434 28.1351 115.451 29.1872C115.973 28.9527 116.521 28.809 117.054 28.7859C118.104 28.7386 118.862 29.1671 119.178 29.864C119.393 29.7475 119.627 29.6743 119.854 29.6634C120.459 29.6362 120.782 30.0688 120.577 30.6288C120.564 30.664 120.55 30.6979 120.536 30.7319H119.338H118.386H115.077H113.449H112.183H110.233H109.879H105.042H103.615C103.661 30.1827 104.898 29.5715 105.649 29.544Z" fill="#FAFAFA"/>
<path d="M54.9721 35.2224C57.4159 31.4778 61.4377 28.8122 65.142 28.8122C67.4652 28.8122 69.2364 29.8615 70.2351 31.5696C71.5817 30.5959 73.0915 30.0122 74.5273 30.0122C77.0544 30.0122 78.6307 31.8157 78.6732 34.36C79.9343 33.7927 81.2585 33.4452 82.5472 33.3895C85.0867 33.2746 86.9206 34.3108 87.6851 35.9962C88.2038 35.7143 88.7692 35.537 89.319 35.5111C90.782 35.4455 91.5625 36.4916 91.0678 37.8458C91.0361 37.9309 91.0012 38.0132 90.9664 38.0951H88.0716H85.7686H77.7683H73.8313H70.7702H66.055H65.1993H53.503H50.0537C50.1638 36.7674 53.1558 35.2893 54.9721 35.2224Z" fill="#F0F0F0"/>
<path d="M24.3337 53.0164C24.4306 53.0058 24.5234 53.0004 24.6117 53.0004C25.6255 51.9648 26.7938 51.304 27.7961 51.304C28.5193 51.304 29.0415 51.6493 29.3285 52.2333C31.1948 50.2234 33.4047 48.9175 35.2812 48.9175C36.7948 48.9175 37.813 49.7671 38.2402 51.153C39.2399 50.3645 40.2972 49.8919 41.2341 49.8919C42.8805 49.8919 43.6754 51.352 43.3727 53.4122C43.3727 53.4122 43.3705 53.4148 43.3749 53.4122C44.2658 52.953 45.1749 52.6688 46.0229 52.6237C47.6885 52.5309 48.7477 53.3696 49.0277 54.737C49.4034 54.506 49.7938 54.3626 50.1554 54.344C51.0658 54.2935 51.4498 55.0477 51.069 56.0564H49.0693H47.7138H42.5007H40.0594H37.8853H34.7977H28.9634H26.6895H25.8802H22.6437H19.7397C20.621 54.5271 22.622 53.1888 24.3337 53.0164Z" fill="#F5F5F5"/>
<path d="M80 136.82C114.266 136.82 142.045 135.197 142.045 133.196C142.045 131.195 114.266 129.573 80 129.573C45.7338 129.573 17.9556 131.195 17.9556 133.196C17.9556 135.197 45.7338 136.82 80 136.82Z" fill="#F5F5F5"/>
<path d="M26.0117 133.196H35.8501L34.4034 104.07H27.4584L26.0117 133.196Z" fill="#407BFF"/>
<path opacity="0.1" d="M26.0117 133.196H35.8501L34.4034 104.07H27.4584L26.0117 133.196Z" fill="black"/>
<path d="M30.2462 119.34L32.0734 117.513L20.8145 106.792L19.5249 108.082L30.2462 119.34Z" fill="#407BFF"/>
<path opacity="0.1" d="M30.2462 119.34L32.0734 117.513L20.8145 106.792L19.5249 108.082L30.2462 119.34Z" fill="black"/>
<path d="M41.2215 106.792C46.3948 106.792 50.5886 102.983 50.5886 98.2854C50.5886 93.5874 46.3948 89.7789 41.2215 89.7789C36.0483 89.7789 31.8545 93.5874 31.8545 98.2854C31.8545 102.983 36.0483 106.792 41.2215 106.792Z" fill="#407BFF"/>
<path d="M33.0375 95.8083C37.0354 95.8083 40.2763 92.8651 40.2763 89.2345C40.2763 85.6039 37.0354 82.6608 33.0375 82.6608C29.0397 82.6608 25.7988 85.6039 25.7988 89.2345C25.7988 92.8651 29.0397 95.8083 33.0375 95.8083Z" fill="#407BFF"/>
<path d="M29.7177 103.566C33.7156 103.566 36.9564 100.623 36.9564 96.9926C36.9564 93.362 33.7156 90.4188 29.7177 90.4188C25.7199 90.4188 22.479 93.362 22.479 96.9926C22.479 100.623 25.7199 103.566 29.7177 103.566Z" fill="#407BFF"/>
<path d="M23.6923 97.4416C27.6902 97.4416 30.9311 94.4984 30.9311 90.8678C30.9311 87.2372 27.6902 84.2941 23.6923 84.2941C19.6945 84.2941 16.4536 87.2372 16.4536 90.8678C16.4536 94.4984 19.6945 97.4416 23.6923 97.4416Z" fill="#407BFF"/>
<path d="M20.6372 106.492C24.635 106.492 27.8759 103.549 27.8759 99.9187C27.8759 96.2881 24.635 93.3449 20.6372 93.3449C16.6393 93.3449 13.3984 96.2881 13.3984 99.9187C13.3984 103.549 16.6393 106.492 20.6372 106.492Z" fill="#407BFF"/>
<path d="M23.4277 111.433C27.4255 111.433 30.6664 108.49 30.6664 104.859C30.6664 101.229 27.4255 98.2854 23.4277 98.2854C19.4298 98.2854 16.189 101.229 16.189 104.859C16.189 108.49 19.4298 111.433 23.4277 111.433Z" fill="#407BFF"/>
<path d="M30.9308 110.195C36.435 110.195 40.8972 106.142 40.8972 101.144C40.8972 96.145 36.435 92.0928 30.9308 92.0928C25.4265 92.0928 20.9644 96.145 20.9644 101.144C20.9644 106.142 25.4265 110.195 30.9308 110.195Z" fill="#407BFF"/>
<path d="M36.129 113.461C41.6333 113.461 46.0954 109.409 46.0954 104.41C46.0954 99.4115 41.6333 95.3593 36.129 95.3593C30.6247 95.3593 26.1626 99.4115 26.1626 104.41C26.1626 109.409 30.6247 113.461 36.129 113.461Z" fill="#407BFF"/>
<path d="M14.9675 98.7817C17.7051 98.7817 19.9243 96.7664 19.9243 94.2803C19.9243 91.7942 17.7051 89.7789 14.9675 89.7789C12.23 89.7789 10.0107 91.7942 10.0107 94.2803C10.0107 96.7664 12.23 98.7817 14.9675 98.7817Z" fill="#407BFF"/>
<path d="M17.863 95.8083C20.6006 95.8083 22.8198 93.7929 22.8198 91.3069C22.8198 88.8208 20.6006 86.8054 17.863 86.8054C15.1255 86.8054 12.9062 88.8208 12.9062 91.3069C12.9062 93.7929 15.1255 95.8083 17.863 95.8083Z" fill="#407BFF"/>
<path d="M42.0759 92.5891C44.8135 92.5891 47.0327 90.5737 47.0327 88.0876C47.0327 85.6015 44.8135 83.5862 42.0759 83.5862C39.3384 83.5862 37.1191 85.6015 37.1191 88.0876C37.1191 90.5737 39.3384 92.5891 42.0759 92.5891Z" fill="#407BFF"/>
<g opacity="0.3">
<path d="M41.2215 106.792C46.3948 106.792 50.5886 102.983 50.5886 98.2854C50.5886 93.5874 46.3948 89.7789 41.2215 89.7789C36.0483 89.7789 31.8545 93.5874 31.8545 98.2854C31.8545 102.983 36.0483 106.792 41.2215 106.792Z" fill="white"/>
<path d="M33.0375 95.8083C37.0354 95.8083 40.2763 92.8651 40.2763 89.2345C40.2763 85.6039 37.0354 82.6608 33.0375 82.6608C29.0397 82.6608 25.7988 85.6039 25.7988 89.2345C25.7988 92.8651 29.0397 95.8083 33.0375 95.8083Z" fill="white"/>
<path d="M29.7177 103.566C33.7156 103.566 36.9564 100.623 36.9564 96.9926C36.9564 93.362 33.7156 90.4188 29.7177 90.4188C25.7199 90.4188 22.479 93.362 22.479 96.9926C22.479 100.623 25.7199 103.566 29.7177 103.566Z" fill="white"/>
<path d="M23.6923 97.4416C27.6902 97.4416 30.9311 94.4984 30.9311 90.8678C30.9311 87.2372 27.6902 84.2941 23.6923 84.2941C19.6945 84.2941 16.4536 87.2372 16.4536 90.8678C16.4536 94.4984 19.6945 97.4416 23.6923 97.4416Z" fill="white"/>
<path d="M20.6372 106.492C24.635 106.492 27.8759 103.549 27.8759 99.9187C27.8759 96.2881 24.635 93.3449 20.6372 93.3449C16.6393 93.3449 13.3984 96.2881 13.3984 99.9187C13.3984 103.549 16.6393 106.492 20.6372 106.492Z" fill="white"/>
<path d="M23.4277 111.433C27.4255 111.433 30.6664 108.49 30.6664 104.859C30.6664 101.229 27.4255 98.2854 23.4277 98.2854C19.4298 98.2854 16.189 101.229 16.189 104.859C16.189 108.49 19.4298 111.433 23.4277 111.433Z" fill="white"/>
<path d="M30.9308 110.195C36.435 110.195 40.8972 106.142 40.8972 101.144C40.8972 96.145 36.435 92.0928 30.9308 92.0928C25.4265 92.0928 20.9644 96.145 20.9644 101.144C20.9644 106.142 25.4265 110.195 30.9308 110.195Z" fill="white"/>
<path d="M36.129 113.461C41.6333 113.461 46.0954 109.409 46.0954 104.41C46.0954 99.4115 41.6333 95.3593 36.129 95.3593C30.6247 95.3593 26.1626 99.4115 26.1626 104.41C26.1626 109.409 30.6247 113.461 36.129 113.461Z" fill="white"/>
<path d="M14.9675 98.7817C17.7051 98.7817 19.9243 96.7664 19.9243 94.2803C19.9243 91.7942 17.7051 89.7789 14.9675 89.7789C12.23 89.7789 10.0107 91.7942 10.0107 94.2803C10.0107 96.7664 12.23 98.7817 14.9675 98.7817Z" fill="white"/>
<path d="M17.863 95.8083C20.6006 95.8083 22.8198 93.7929 22.8198 91.3069C22.8198 88.8208 20.6006 86.8054 17.863 86.8054C15.1255 86.8054 12.9062 88.8208 12.9062 91.3069C12.9062 93.7929 15.1255 95.8083 17.863 95.8083Z" fill="white"/>
<path d="M42.0759 92.5891C44.8135 92.5891 47.0327 90.5737 47.0327 88.0876C47.0327 85.6015 44.8135 83.5862 42.0759 83.5862C39.3384 83.5862 37.1191 85.6015 37.1191 88.0876C37.1191 90.5737 39.3384 92.5891 42.0759 92.5891Z" fill="white"/>
</g>
<path d="M89.8528 129.872C89.8528 131.058 89.569 132.185 89.0576 133.196H73.0032C72.4918 132.185 72.208 131.058 72.208 129.872C72.208 129.161 72.3091 128.473 72.5002 127.816C72.5309 127.712 72.5648 127.608 72.5984 127.504C72.9805 126.385 73.624 125.374 74.4611 124.523C74.5904 124.393 74.7251 124.264 74.8656 124.143C75.7002 123.399 76.7005 122.803 77.8102 122.413C78.535 122.151 79.305 121.977 80.1085 121.904C80.4119 121.874 80.7181 121.859 81.0301 121.859C82.6429 121.859 84.1546 122.252 85.4554 122.941C88.0855 124.326 89.8528 126.911 89.8528 129.872Z" fill="#407BFF"/>
<path d="M73.3236 127.538C77.0887 127.538 80.1409 124.766 80.1409 121.347C80.1409 117.928 77.0887 115.156 73.3236 115.156C69.5585 115.156 66.5063 117.928 66.5063 121.347C66.5063 124.766 69.5585 127.538 73.3236 127.538Z" fill="#407BFF"/>
<path d="M77.0125 128.653C77.0125 130.448 76.1696 132.067 74.8266 133.196H65.5658C64.5431 132.339 63.8125 131.195 63.5204 129.909C63.4528 129.611 63.408 129.307 63.3911 128.993V128.99C63.3828 128.881 63.3799 128.765 63.3799 128.653C63.3799 128.428 63.394 128.206 63.4221 127.987C63.5178 127.158 63.7959 126.377 64.2202 125.678C64.8269 124.669 65.7373 123.832 66.8388 123.267C67.8304 122.756 68.9741 122.464 70.1962 122.464C70.5812 122.464 70.9604 122.492 71.3284 122.551C72.6855 122.756 73.9047 123.326 74.8656 124.144C75.1776 124.411 75.464 124.706 75.7172 125.023C76.1303 125.54 76.456 126.116 76.6781 126.737C76.7258 126.866 76.768 126.998 76.8045 127.133C76.9396 127.619 77.0125 128.128 77.0125 128.653Z" fill="#407BFF"/>
<path d="M64.5219 129.076C68.287 129.076 71.3392 126.304 71.3392 122.885C71.3392 119.466 68.287 116.694 64.5219 116.694C60.7568 116.694 57.7046 119.466 57.7046 122.885C57.7046 126.304 60.7568 129.076 64.5219 129.076Z" fill="#407BFF"/>
<path d="M68.4628 131.409C68.4628 132.03 68.3617 132.631 68.1736 133.196H55.1169C54.9288 132.632 54.8276 132.03 54.8276 131.409C54.8276 130.979 54.8753 130.561 54.9652 130.159C55.2404 128.951 55.9009 127.872 56.8225 127.032C57.331 126.571 57.9153 126.183 58.5617 125.888C59.2699 125.56 60.0536 125.34 60.8798 125.259C61.13 125.234 61.3857 125.219 61.644 125.219C62.147 125.219 62.6331 125.27 63.1051 125.366H63.1076C63.4926 125.439 63.8635 125.543 64.2203 125.677C64.5601 125.801 64.8833 125.95 65.1924 126.124C66.1982 126.681 67.0328 127.467 67.6059 128.406C68.0638 129.153 68.3588 129.996 68.4376 130.892C68.4488 130.985 68.4545 131.08 68.4571 131.176C68.46 131.252 68.4628 131.331 68.4628 131.409Z" fill="#407BFF"/>
<path d="M70.3145 133.196H58.23C59.0757 131.724 60.5564 130.603 62.3433 130.125C62.7225 130.021 63.1157 129.951 63.5205 129.909C63.7679 129.884 64.0178 129.872 64.2735 129.872C65.7852 129.872 67.1788 130.319 68.3109 131.072C68.3615 131.106 68.4092 131.139 68.4572 131.176C69.2271 131.718 69.862 132.407 70.3145 133.196Z" fill="#407BFF"/>
<path d="M80.7243 132.564C80.7243 132.778 80.716 132.988 80.699 133.196H61.9784C61.9614 132.988 61.9531 132.778 61.9531 132.564C61.9531 131.716 62.0878 130.898 62.3438 130.125C62.4814 129.701 62.6584 129.288 62.8664 128.895C63.0322 128.58 63.2178 128.276 63.4226 127.987C63.9086 127.291 64.507 126.661 65.1928 126.124C65.915 125.554 66.7323 125.085 67.6203 124.736C68.7246 124.301 69.941 124.054 71.2194 124.043C71.2587 124.04 71.301 124.04 71.34 124.04C72.4357 124.04 73.4866 124.211 74.4616 124.523C74.8971 124.66 75.3157 124.829 75.7176 125.023C76.3864 125.343 77.0072 125.734 77.5691 126.189C78.044 126.571 78.4738 126.996 78.8558 127.453C80.0274 128.88 80.7243 130.648 80.7243 132.564Z" fill="#407BFF"/>
<path d="M85.2282 133.196H67.2407C67.4881 132.437 67.8503 131.724 68.3111 131.072C68.3505 131.013 68.3927 130.951 68.4375 130.892C69.4321 129.546 70.8426 128.47 72.5002 127.816C72.7642 127.712 73.0369 127.619 73.315 127.537C74.0903 127.304 74.9108 127.163 75.7623 127.127C75.9198 127.119 76.0769 127.116 76.2343 127.116C76.4254 127.116 76.6164 127.122 76.8046 127.133C77.5127 127.169 78.1982 127.279 78.8558 127.453C81.9102 128.257 84.3207 130.432 85.2282 133.196Z" fill="#407BFF"/>
<path d="M56.3049 130.339C58.883 130.339 60.973 128.44 60.973 126.099C60.973 123.758 58.883 121.86 56.3049 121.86C53.7267 121.86 51.6367 123.758 51.6367 126.099C51.6367 128.44 53.7267 130.339 56.3049 130.339Z" fill="#407BFF"/>
<path d="M59.0324 127.538C61.6106 127.538 63.7006 125.64 63.7006 123.299C63.7006 120.957 61.6106 119.059 59.0324 119.059C56.4543 119.059 54.3643 120.957 54.3643 123.299C54.3643 125.64 56.4543 127.538 59.0324 127.538Z" fill="#407BFF"/>
<path d="M81.8356 124.506C84.4138 124.506 86.5038 122.608 86.5038 120.267C86.5038 117.925 84.4138 116.027 81.8356 116.027C79.2575 116.027 77.1675 117.925 77.1675 120.267C77.1675 122.608 79.2575 124.506 81.8356 124.506Z" fill="#407BFF"/>
<g opacity="0.3">
<path d="M89.8528 129.872C89.8528 131.058 89.569 132.185 89.0576 133.196H73.0032C72.4918 132.185 72.208 131.058 72.208 129.872C72.208 129.161 72.3091 128.473 72.5002 127.816C72.5309 127.712 72.5648 127.608 72.5984 127.504C72.9805 126.385 73.624 125.374 74.4611 124.523C74.5904 124.393 74.7251 124.264 74.8656 124.143C75.7002 123.399 76.7005 122.803 77.8102 122.413C78.535 122.151 79.305 121.977 80.1085 121.904C80.4119 121.874 80.7181 121.859 81.0301 121.859C82.6429 121.859 84.1546 122.252 85.4554 122.941C88.0855 124.326 89.8528 126.911 89.8528 129.872Z" fill="white"/>
<path d="M73.3236 127.538C77.0887 127.538 80.1409 124.766 80.1409 121.347C80.1409 117.928 77.0887 115.156 73.3236 115.156C69.5585 115.156 66.5063 117.928 66.5063 121.347C66.5063 124.766 69.5585 127.538 73.3236 127.538Z" fill="white"/>
<path d="M77.0125 128.653C77.0125 130.448 76.1696 132.067 74.8266 133.196H65.5658C64.5431 132.339 63.8125 131.195 63.5204 129.909C63.4528 129.611 63.408 129.307 63.3911 128.993V128.99C63.3828 128.881 63.3799 128.765 63.3799 128.653C63.3799 128.428 63.394 128.206 63.4221 127.987C63.5178 127.158 63.7959 126.377 64.2202 125.678C64.8269 124.669 65.7373 123.832 66.8388 123.267C67.8304 122.756 68.9741 122.464 70.1962 122.464C70.5812 122.464 70.9604 122.492 71.3284 122.551C72.6855 122.756 73.9047 123.326 74.8656 124.144C75.1776 124.411 75.464 124.706 75.7172 125.023C76.1303 125.54 76.456 126.116 76.6781 126.737C76.7258 126.866 76.768 126.998 76.8045 127.133C76.9396 127.619 77.0125 128.128 77.0125 128.653Z" fill="white"/>
<path d="M64.5219 129.076C68.287 129.076 71.3392 126.304 71.3392 122.885C71.3392 119.466 68.287 116.694 64.5219 116.694C60.7568 116.694 57.7046 119.466 57.7046 122.885C57.7046 126.304 60.7568 129.076 64.5219 129.076Z" fill="white"/>
<path d="M68.4628 131.409C68.4628 132.03 68.3617 132.631 68.1736 133.196H55.1169C54.9288 132.632 54.8276 132.03 54.8276 131.409C54.8276 130.979 54.8753 130.561 54.9652 130.159C55.2404 128.951 55.9009 127.872 56.8225 127.032C57.331 126.571 57.9153 126.183 58.5617 125.888C59.2699 125.56 60.0536 125.34 60.8798 125.259C61.13 125.234 61.3857 125.219 61.644 125.219C62.147 125.219 62.6331 125.27 63.1051 125.366H63.1076C63.4926 125.439 63.8635 125.543 64.2203 125.677C64.5601 125.801 64.8833 125.95 65.1924 126.124C66.1982 126.681 67.0328 127.467 67.6059 128.406C68.0638 129.153 68.3588 129.996 68.4376 130.892C68.4488 130.985 68.4545 131.08 68.4571 131.176C68.46 131.252 68.4628 131.331 68.4628 131.409Z" fill="white"/>
<path d="M70.3145 133.196H58.23C59.0757 131.724 60.5564 130.603 62.3433 130.125C62.7225 130.021 63.1157 129.951 63.5205 129.909C63.7679 129.884 64.0178 129.872 64.2735 129.872C65.7852 129.872 67.1788 130.319 68.3109 131.072C68.3615 131.106 68.4092 131.139 68.4572 131.176C69.2271 131.718 69.862 132.407 70.3145 133.196Z" fill="white"/>
<path d="M80.7243 132.564C80.7243 132.778 80.716 132.988 80.699 133.196H61.9784C61.9614 132.988 61.9531 132.778 61.9531 132.564C61.9531 131.716 62.0878 130.898 62.3438 130.125C62.4814 129.701 62.6584 129.288 62.8664 128.895C63.0322 128.58 63.2178 128.276 63.4226 127.987C63.9086 127.291 64.507 126.661 65.1928 126.124C65.915 125.554 66.7323 125.085 67.6203 124.736C68.7246 124.301 69.941 124.054 71.2194 124.043C71.2587 124.04 71.301 124.04 71.34 124.04C72.4357 124.04 73.4866 124.211 74.4616 124.523C74.8971 124.66 75.3157 124.829 75.7176 125.023C76.3864 125.343 77.0072 125.734 77.5691 126.189C78.044 126.571 78.4738 126.996 78.8558 127.453C80.0274 128.88 80.7243 130.648 80.7243 132.564Z" fill="white"/>
<path d="M85.2282 133.196H67.2407C67.4881 132.437 67.8503 131.724 68.3111 131.072C68.3505 131.013 68.3927 130.951 68.4375 130.892C69.4321 129.546 70.8426 128.47 72.5002 127.816C72.7642 127.712 73.0369 127.619 73.315 127.537C74.0903 127.304 74.9108 127.163 75.7623 127.127C75.9198 127.119 76.0769 127.116 76.2343 127.116C76.4254 127.116 76.6164 127.122 76.8046 127.133C77.5127 127.169 78.1982 127.279 78.8558 127.453C81.9102 128.257 84.3207 130.432 85.2282 133.196Z" fill="white"/>
<path d="M56.3049 130.339C58.883 130.339 60.973 128.44 60.973 126.099C60.973 123.758 58.883 121.86 56.3049 121.86C53.7267 121.86 51.6367 123.758 51.6367 126.099C51.6367 128.44 53.7267 130.339 56.3049 130.339Z" fill="white"/>
<path d="M59.0324 127.538C61.6106 127.538 63.7006 125.64 63.7006 123.299C63.7006 120.957 61.6106 119.059 59.0324 119.059C56.4543 119.059 54.3643 120.957 54.3643 123.299C54.3643 125.64 56.4543 127.538 59.0324 127.538Z" fill="white"/>
<path d="M81.8356 124.506C84.4138 124.506 86.5038 122.608 86.5038 120.267C86.5038 117.925 84.4138 116.027 81.8356 116.027C79.2575 116.027 77.1675 117.925 77.1675 120.267C77.1675 122.608 79.2575 124.506 81.8356 124.506Z" fill="white"/>
</g>
<path d="M110.683 133.196H124.063L122.096 93.585H112.651L110.683 133.196Z" fill="#407BFF"/>
<path opacity="0.1" d="M110.683 133.196H124.063L122.096 93.585H112.651L110.683 133.196Z" fill="black"/>
<path d="M116.442 114.353L118.927 111.868L103.615 97.287L101.861 99.041L116.442 114.353Z" fill="#407BFF"/>
<path opacity="0.1" d="M116.442 114.353L118.927 111.868L103.615 97.287L101.861 99.041L116.442 114.353Z" fill="black"/>
<path d="M131.368 97.2871C138.404 97.2871 144.107 92.1076 144.107 85.7184C144.107 79.3292 138.404 74.1498 131.368 74.1498C124.333 74.1498 118.629 79.3292 118.629 85.7184C118.629 92.1076 124.333 97.2871 131.368 97.2871Z" fill="#407BFF"/>
<path d="M120.239 82.3494C125.675 82.3494 130.083 78.3468 130.083 73.4093C130.083 68.4718 125.675 64.4691 120.239 64.4691C114.802 64.4691 110.394 68.4718 110.394 73.4093C110.394 78.3468 114.802 82.3494 120.239 82.3494Z" fill="#407BFF"/>
<path d="M115.724 92.9002C121.161 92.9002 125.568 88.8975 125.568 83.96C125.568 79.0225 121.161 75.0198 115.724 75.0198C110.287 75.0198 105.879 79.0225 105.879 83.96C105.879 88.8975 110.287 92.9002 115.724 92.9002Z" fill="#407BFF"/>
<path d="M107.529 84.5706C112.966 84.5706 117.373 80.5679 117.373 75.6304C117.373 70.6929 112.966 66.6902 107.529 66.6902C102.092 66.6902 97.6841 70.6929 97.6841 75.6304C97.6841 80.5679 102.092 84.5706 107.529 84.5706Z" fill="#407BFF"/>
<path d="M103.374 96.8796C108.811 96.8796 113.218 92.877 113.218 87.9395C113.218 83.002 108.811 78.9993 103.374 78.9993C97.9368 78.9993 93.5293 83.002 93.5293 87.9395C93.5293 92.877 97.9368 96.8796 103.374 96.8796Z" fill="#407BFF"/>
<path d="M107.169 103.599C112.606 103.599 117.014 99.5961 117.014 94.6585C117.014 89.721 112.606 85.7184 107.169 85.7184C101.732 85.7184 97.3247 89.721 97.3247 94.6585C97.3247 99.5961 101.732 103.599 107.169 103.599Z" fill="#407BFF"/>
<path d="M117.373 101.915C124.859 101.915 130.927 96.4036 130.927 89.6054C130.927 82.8073 124.859 77.2963 117.373 77.2963C109.887 77.2963 103.819 82.8073 103.819 89.6054C103.819 96.4036 109.887 101.915 117.373 101.915Z" fill="#407BFF"/>
<path d="M124.442 106.357C131.928 106.357 137.997 100.846 137.997 94.0476C137.997 87.2495 131.928 81.7385 124.442 81.7385C116.957 81.7385 110.888 87.2495 110.888 94.0476C110.888 100.846 116.957 106.357 124.442 106.357Z" fill="#407BFF"/>
<path d="M95.6635 86.3936C99.3865 86.3936 102.405 83.6527 102.405 80.2717C102.405 76.8907 99.3865 74.1498 95.6635 74.1498C91.9405 74.1498 88.9224 76.8907 88.9224 80.2717C88.9224 83.6527 91.9405 86.3936 95.6635 86.3936Z" fill="#407BFF"/>
<path d="M99.6015 82.3494C103.324 82.3494 106.343 79.6086 106.343 76.2275C106.343 72.8465 103.324 70.1056 99.6015 70.1056C95.8785 70.1056 92.8604 72.8465 92.8604 76.2275C92.8604 79.6086 95.8785 82.3494 99.6015 82.3494Z" fill="#407BFF"/>
<path d="M132.53 77.9715C136.253 77.9715 139.271 75.2306 139.271 71.8496C139.271 68.4685 136.253 65.7277 132.53 65.7277C128.807 65.7277 125.789 68.4685 125.789 71.8496C125.789 75.2306 128.807 77.9715 132.53 77.9715Z" fill="#407BFF"/>
<g opacity="0.3">
<path d="M131.368 97.2871C138.404 97.2871 144.107 92.1076 144.107 85.7184C144.107 79.3292 138.404 74.1498 131.368 74.1498C124.333 74.1498 118.629 79.3292 118.629 85.7184C118.629 92.1076 124.333 97.2871 131.368 97.2871Z" fill="white"/>
<path d="M120.239 82.3494C125.675 82.3494 130.083 78.3468 130.083 73.4093C130.083 68.4718 125.675 64.4691 120.239 64.4691C114.802 64.4691 110.394 68.4718 110.394 73.4093C110.394 78.3468 114.802 82.3494 120.239 82.3494Z" fill="white"/>
<path d="M115.724 92.9002C121.161 92.9002 125.568 88.8975 125.568 83.96C125.568 79.0225 121.161 75.0198 115.724 75.0198C110.287 75.0198 105.879 79.0225 105.879 83.96C105.879 88.8975 110.287 92.9002 115.724 92.9002Z" fill="white"/>
<path d="M107.529 84.5706C112.966 84.5706 117.373 80.5679 117.373 75.6304C117.373 70.6929 112.966 66.6902 107.529 66.6902C102.092 66.6902 97.6841 70.6929 97.6841 75.6304C97.6841 80.5679 102.092 84.5706 107.529 84.5706Z" fill="white"/>
<path d="M103.374 96.8796C108.811 96.8796 113.218 92.877 113.218 87.9395C113.218 83.002 108.811 78.9993 103.374 78.9993C97.9368 78.9993 93.5293 83.002 93.5293 87.9395C93.5293 92.877 97.9368 96.8796 103.374 96.8796Z" fill="white"/>
<path d="M107.169 103.599C112.606 103.599 117.014 99.5961 117.014 94.6585C117.014 89.721 112.606 85.7184 107.169 85.7184C101.732 85.7184 97.3247 89.721 97.3247 94.6585C97.3247 99.5961 101.732 103.599 107.169 103.599Z" fill="white"/>
<path d="M117.373 101.915C124.859 101.915 130.927 96.4036 130.927 89.6054C130.927 82.8073 124.859 77.2963 117.373 77.2963C109.887 77.2963 103.819 82.8073 103.819 89.6054C103.819 96.4036 109.887 101.915 117.373 101.915Z" fill="white"/>
<path d="M124.442 106.357C131.928 106.357 137.997 100.846 137.997 94.0476C137.997 87.2495 131.928 81.7385 124.442 81.7385C116.957 81.7385 110.888 87.2495 110.888 94.0476C110.888 100.846 116.957 106.357 124.442 106.357Z" fill="white"/>
<path d="M95.6635 86.3936C99.3865 86.3936 102.405 83.6527 102.405 80.2717C102.405 76.8907 99.3865 74.1498 95.6635 74.1498C91.9405 74.1498 88.9224 76.8907 88.9224 80.2717C88.9224 83.6527 91.9405 86.3936 95.6635 86.3936Z" fill="white"/>
<path d="M99.6015 82.3494C103.324 82.3494 106.343 79.6086 106.343 76.2275C106.343 72.8465 103.324 70.1056 99.6015 70.1056C95.8785 70.1056 92.8604 72.8465 92.8604 76.2275C92.8604 79.6086 95.8785 82.3494 99.6015 82.3494Z" fill="white"/>
<path d="M132.53 77.9715C136.253 77.9715 139.271 75.2306 139.271 71.8496C139.271 68.4685 136.253 65.7277 132.53 65.7277C128.807 65.7277 125.789 68.4685 125.789 71.8496C125.789 75.2306 128.807 77.9715 132.53 77.9715Z" fill="white"/>
</g>
<path d="M44.499 42.9664H38.98V60.4592H44.499V42.9664Z" fill="#263238"/>
<path d="M54.0946 40.1158L28.6934 65.5174H79.4956L54.0946 40.1158Z" fill="#263238"/>
<path d="M54.0949 42.2708L30.8481 65.5175H77.3413L54.0949 42.2708Z" fill="#407BFF"/>
<path opacity="0.1" d="M43.9414 61.5346V62.8872H64.2473V61.5346H43.9414Z" fill="black"/>
<path opacity="0.1" d="M54.2829 49.4362V48.0832H50.5879V49.4362H52.4356V50.7885H56.1306V49.4362H54.2829Z" fill="black"/>
<path d="M74.5795 64.0867H33.6099V133.196H74.5795V64.0867Z" fill="#407BFF"/>
<path d="M75.3763 132.325H32.8125V133.196H75.3763V132.325Z" fill="#407BFF"/>
<path d="M33.0587 79.1872V98.7379H32.5371V99.7728H33.6101V98.7379V79.1872H33.0587Z" fill="#407BFF"/>
<path d="M75.1305 79.1872V98.7379H75.6521V99.7728H74.5791V98.7379V79.1872H75.1305Z" fill="#407BFF"/>
<path d="M32.5068 66.4711H75.6822L75.1753 73.3258H33.0137L32.5068 66.4711Z" fill="#407BFF"/>
<path opacity="0.1" d="M74.5795 65.5175H33.6099V66.4711H74.5795V65.5175Z" fill="black"/>
<path opacity="0.1" d="M74.5795 73.2662H33.6099V74.2198H74.5795V73.2662Z" fill="black"/>
<path opacity="0.4" d="M54.0947 52.8167C49.28 52.8167 45.377 56.7197 45.377 61.5347H62.8125C62.8125 56.7197 58.9091 52.8167 54.0947 52.8167Z" fill="white"/>
<path opacity="0.3" d="M55.3317 54.9293C51.684 54.9293 48.7266 57.8864 48.7266 61.5344H61.9365C61.9368 57.8867 58.9794 54.9293 55.3317 54.9293Z" fill="#407BFF"/>
<path opacity="0.1" d="M34.9679 67.8121H34.4741V71.9846H34.9679V67.8121Z" fill="black"/>
<path opacity="0.1" d="M37.3898 67.8121H36.896V71.9846H37.3898V67.8121Z" fill="black"/>
<path opacity="0.1" d="M39.8116 67.8121H39.3179V71.9846H39.8116V67.8121Z" fill="black"/>
<path opacity="0.1" d="M42.233 67.8121H41.7393V71.9846H42.233V67.8121Z" fill="black"/>
<path opacity="0.1" d="M44.6544 67.8121H44.1606V71.9846H44.6544V67.8121Z" fill="black"/>
<path opacity="0.1" d="M47.0763 67.8121H46.5825V71.9846H47.0763V67.8121Z" fill="black"/>
<path opacity="0.1" d="M49.4982 67.8121H49.0044V71.9846H49.4982V67.8121Z" fill="black"/>
<path opacity="0.1" d="M51.92 67.8121H51.4263V71.9846H51.92V67.8121Z" fill="black"/>
<path opacity="0.1" d="M54.3414 67.8121H53.8477V71.9846H54.3414V67.8121Z" fill="black"/>
<path opacity="0.1" d="M56.7633 67.8121H56.2695V71.9846H56.7633V67.8121Z" fill="black"/>
<path opacity="0.1" d="M59.1847 67.8121H58.6909V71.9846H59.1847V67.8121Z" fill="black"/>
<path opacity="0.1" d="M61.6066 67.8121H61.1128V71.9846H61.6066V67.8121Z" fill="black"/>
<path opacity="0.1" d="M64.0284 67.8121H63.5347V71.9846H64.0284V67.8121Z" fill="black"/>
<path opacity="0.1" d="M66.4498 67.8121H65.9561V71.9846H66.4498V67.8121Z" fill="black"/>
<path opacity="0.1" d="M68.8717 67.8121H68.3779V71.9846H68.8717V67.8121Z" fill="black"/>
<path opacity="0.1" d="M71.2931 67.8121H70.7993V71.9846H71.2931V67.8121Z" fill="black"/>
<path opacity="0.1" d="M73.715 67.8121H73.2212V71.9846H73.715V67.8121Z" fill="black"/>
<path opacity="0.1" d="M35.4461 101.122H34.9648V102.244H35.4461V101.122Z" fill="black"/>
<path opacity="0.1" d="M37.807 101.122H37.3257V102.244H37.807V101.122Z" fill="black"/>
<path opacity="0.1" d="M40.1683 101.122H39.687V102.244H40.1683V101.122Z" fill="black"/>
<path opacity="0.1" d="M42.5296 101.122H42.0483V102.244H42.5296V101.122Z" fill="black"/>
<path opacity="0.1" d="M44.8905 101.122H44.4092V102.244H44.8905V101.122Z" fill="black"/>
<path opacity="0.1" d="M47.2518 101.122H46.7705V102.244H47.2518V101.122Z" fill="black"/>
<path opacity="0.1" d="M49.6126 101.122H49.1313V102.244H49.6126V101.122Z" fill="black"/>
<path opacity="0.1" d="M51.974 101.122H51.4927V102.244H51.974V101.122Z" fill="black"/>
<path opacity="0.1" d="M54.3353 101.122H53.854V102.244H54.3353V101.122Z" fill="black"/>
<path opacity="0.1" d="M56.6961 101.122H56.2148V102.244H56.6961V101.122Z" fill="black"/>
<path opacity="0.1" d="M59.0575 101.122H58.5762V102.244H59.0575V101.122Z" fill="black"/>
<path opacity="0.1" d="M61.4188 101.122H60.9375V102.244H61.4188V101.122Z" fill="black"/>
<path opacity="0.1" d="M63.7801 101.122H63.2988V102.244H63.7801V101.122Z" fill="black"/>
<path opacity="0.1" d="M66.1409 101.122H65.6597V102.244H66.1409V101.122Z" fill="black"/>
<path opacity="0.1" d="M68.5023 101.122H68.021V102.244H68.5023V101.122Z" fill="black"/>
<path opacity="0.1" d="M70.8636 101.122H70.3823V102.244H70.8636V101.122Z" fill="black"/>
<path opacity="0.1" d="M73.2244 101.122H72.7432V102.244H73.2244V101.122Z" fill="black"/>
<path opacity="0.4" d="M47.0908 98.7382L47.0908 79.1872H37.6335V98.7382H47.0908Z" fill="white"/>
<path opacity="0.1" d="M37.5664 98.7378V99.7727H47.0909V98.7378H37.5664Z" fill="black"/>
<path opacity="0.4" d="M47.0908 89.5583V88.3663H37.6335V89.5583H47.0908Z" fill="white"/>
<path opacity="0.4" d="M46.3757 79.9024H38.3491V98.0227H46.3757V79.9024Z" fill="white"/>
<path opacity="0.3" d="M45.7721 82.9225H39.5645V98.0227H45.7721V82.9225Z" fill="#407BFF"/>
<path opacity="0.4" d="M66.2944 98.7381V79.1871H56.8371V98.7381H66.2944Z" fill="white"/>
<path opacity="0.1" d="M52.4858 98.738V99.7729H70.6452V98.738H52.4858Z" fill="black"/>
<path opacity="0.4" d="M66.2944 89.5583V88.3663H56.8371V89.5583H66.2944Z" fill="white"/>
<path opacity="0.4" d="M65.5788 79.9024H57.5522V98.0227H65.5788V79.9024Z" fill="white"/>
<path opacity="0.3" d="M64.9753 82.9225H58.7676V98.0227H64.9753V82.9225Z" fill="#407BFF"/>
<path opacity="0.4" d="M70.6455 98.738V79.187H67.5617V98.738H70.6455Z" fill="white"/>
<path opacity="0.4" d="M70.6455 89.5585V88.3665H67.5617V89.5585H70.6455Z" fill="white"/>
<path opacity="0.4" d="M69.9303 79.9024H68.2769V98.0227H69.9303V79.9024Z" fill="white"/>
<path opacity="0.4" d="M55.5698 98.738L55.5698 79.187H52.486V98.738H55.5698Z" fill="white"/>
<path opacity="0.4" d="M55.5698 89.5585V88.3665H52.486V89.5585H55.5698Z" fill="white"/>
<path opacity="0.4" d="M54.8551 79.9024H53.2017V98.0227H54.8551V79.9024Z" fill="white"/>
<path opacity="0.4" d="M66.2944 125.064V105.513H56.8372V125.064H66.2944Z" fill="white"/>
<path opacity="0.1" d="M52.4863 125.064V126.099H70.6457V125.064H52.4863Z" fill="black"/>
<path opacity="0.4" d="M66.2944 115.885V114.693H56.8372V115.885H66.2944Z" fill="white"/>
<path opacity="0.4" d="M65.5793 106.229H57.5527V124.349H65.5793V106.229Z" fill="white"/>
<path opacity="0.3" d="M64.9753 109.249H58.7676V124.349H64.9753V109.249Z" fill="#407BFF"/>
<path opacity="0.4" d="M70.6455 125.064V105.513H67.5617V125.064H70.6455Z" fill="white"/>
<path opacity="0.4" d="M70.6455 115.885V114.693H67.5617V115.885H70.6455Z" fill="white"/>
<path opacity="0.4" d="M69.9308 106.229H68.2773V124.349H69.9308V106.229Z" fill="white"/>
<path opacity="0.4" d="M55.5698 125.064L55.5698 105.513H52.486V125.064H55.5698Z" fill="white"/>
<path opacity="0.4" d="M55.5698 115.885V114.693H52.486V115.885H55.5698Z" fill="white"/>
<path opacity="0.4" d="M54.8551 106.229H53.2017V124.349H54.8551V106.229Z" fill="white"/>
<path opacity="0.1" d="M50.4664 131.455V129.714H36.3086V131.455H35.4053V133.196H51.3701V131.455H50.4664Z" fill="black"/>
<path opacity="0.4" d="M49.6205 129.713H37.1543V111.746C37.1543 108.318 39.9591 105.513 43.3876 105.513C46.8157 105.513 49.6209 108.318 49.6209 111.746L49.6205 129.713Z" fill="white"/>
<path opacity="0.5" d="M48.3897 112.328H38.3853V129.714H48.3897V112.328Z" fill="#407BFF"/>
<path opacity="0.5" d="M43.3871 106.725C41.2827 106.725 39.5771 108.431 39.5771 110.535H47.197C47.197 108.431 45.4914 106.725 43.3871 106.725Z" fill="#407BFF"/>
<path d="M47.8283 121.021C47.8283 121.369 47.5458 121.652 47.1976 121.652C46.8491 121.652 46.5669 121.369 46.5669 121.021C46.5669 120.672 46.8495 120.39 47.1976 120.39C47.5458 120.39 47.8283 120.672 47.8283 121.021Z" fill="#407BFF"/>
<path opacity="0.1" d="M41.9863 76.8814V78.2341H45.6814V76.8814H41.9863Z" fill="black"/>
<path opacity="0.1" d="M59.3306 75.004V76.3566H63.0256V75.004H59.3306Z" fill="black"/>
<path opacity="0.1" d="M68.4851 129.146V127.794H64.79V129.146H66.6374V130.499H70.3324V129.146H68.4851Z" fill="black"/>
<path d="M122.972 50.4963H82.624V133.196H122.972V50.4963Z" fill="#407BFF"/>
<path d="M88.3513 40.4979C88.1916 40.4979 88.062 40.6275 88.062 40.7872V49.1638H88.6406V40.7872C88.6406 40.6272 88.511 40.4979 88.3513 40.4979Z" fill="#263238"/>
<path d="M117.056 46.4662C116.897 46.4662 116.767 46.5958 116.767 46.7555V49.1638H117.346V46.7555C117.346 46.5958 117.216 46.4662 117.056 46.4662Z" fill="#263238"/>
<path d="M93.1664 42.6845H92.5879V49.1639H93.1664V42.6845Z" fill="#263238"/>
<path d="M97.3798 41.0794C98.2272 43.4093 97.6275 45.7658 96.0406 46.343C94.4534 46.9203 92.48 45.4995 91.6326 43.1696C90.7853 40.8397 91.3849 38.4832 92.9718 37.9059C94.559 37.3286 96.5325 38.7494 97.3798 41.0794Z" fill="#263238"/>
<path d="M122.972 93.1465L137.564 102.933V133.196H122.972V93.1465Z" fill="#407BFF"/>
<path opacity="0.1" d="M122.972 93.1465L137.564 102.933V133.196H122.972V93.1465Z" fill="black"/>
<path opacity="0.1" d="M134.099 124.55V123.083H130.09V124.55H132.094V126.018H136.103V124.55H134.099Z" fill="black"/>
<path d="M138.933 104.427L122.972 93.6534V92.0173L138.933 102.79V104.427Z" fill="#263238"/>
<path opacity="0.4" d="M135.04 118.623V105.72H125.141V118.623H135.04Z" fill="white"/>
<path opacity="0.4" d="M135.04 112.565V111.778H125.141V112.565H135.04Z" fill="white"/>
<path opacity="0.4" d="M134.612 106.192H125.569V118.151H134.612V106.192Z" fill="white"/>
<path opacity="0.3" d="M134.251 108.185H126.295V118.151H134.251V108.185Z" fill="#407BFF"/>
<path d="M122.972 50.4963H82.624L82.0742 49.6195H123.522L122.972 50.4963Z" fill="#407BFF"/>
<path opacity="0.2" d="M122.972 50.4963H82.624L82.0742 49.6195H123.522L122.972 50.4963Z" fill="black"/>
<path d="M123.759 49.6195H81.8373L81.2661 48.7085H124.33L123.759 49.6195Z" fill="#263238"/>
<path opacity="0.2" d="M87.3476 52.6663H83.9111V60.9427H87.3476V52.6663Z" fill="black"/>
<path opacity="0.4" d="M86.8399 53.89H84.4194V59.7191H86.8399V53.89Z" fill="#407BFF"/>
<path opacity="0.2" d="M121.685 52.6663H118.249V60.9427H121.685V52.6663Z" fill="black"/>
<path opacity="0.4" d="M121.177 53.89H118.757V59.7191H121.177V53.89Z" fill="#407BFF"/>
<path opacity="0.2" d="M116.768 52.6663H111.322V60.9427H116.768V52.6663Z" fill="black"/>
<path opacity="0.4" d="M115.962 53.89H112.127V59.7191H115.962V53.89Z" fill="#407BFF"/>
<path opacity="0.2" d="M94.2749 52.6663H88.8291V60.9427H94.2749V52.6663Z" fill="black"/>
<path opacity="0.4" d="M93.4698 53.89H89.6343V59.7191H93.4698V53.89Z" fill="#407BFF"/>
<path opacity="0.2" d="M109.684 52.6663H95.9126V60.9427H109.684V52.6663Z" fill="black"/>
<path opacity="0.4" d="M107.647 53.89H97.9482V59.7191H107.647V53.89Z" fill="#407BFF"/>
<path opacity="0.4" d="M101.042 91.3977V67.9958H90.7828V91.3977H101.042Z" fill="white"/>
<path opacity="0.1" d="M86.063 91.3976V92.0171H105.762V91.3976H86.063Z" fill="black"/>
<path opacity="0.4" d="M101.042 80.4102V78.9833H90.7828V80.4102H101.042Z" fill="white"/>
<path opacity="0.4" d="M100.266 68.8519H91.5591V90.5415H100.266V68.8519Z" fill="white"/>
<path opacity="0.3" d="M99.611 72.4669H92.877V90.5414H99.611V72.4669Z" fill="#407BFF"/>
<path opacity="0.4" d="M105.762 91.3978V67.9958H102.417V91.3978H105.762Z" fill="white"/>
<path opacity="0.4" d="M105.762 80.4103V78.9834H102.417V80.4103H105.762Z" fill="white"/>
<path opacity="0.4" d="M104.986 68.8518H103.193V90.5414H104.986V68.8518Z" fill="white"/>
<path opacity="0.4" d="M89.4087 91.3976V67.9957H86.0634V91.3976H89.4087Z" fill="white"/>
<path opacity="0.4" d="M89.4087 80.41V78.9832H86.0634V80.41H89.4087Z" fill="white"/>
<path opacity="0.4" d="M88.6329 68.8518H86.8394V90.5414H88.6329V68.8518Z" fill="white"/>
<path opacity="0.4" d="M101.042 120.536V97.1344H90.7828V120.536H101.042Z" fill="white"/>
<path opacity="0.1" d="M86.063 120.536V121.156H105.762V120.536H86.063Z" fill="black"/>
<path opacity="0.4" d="M101.042 109.549V108.122H90.7828V109.549H101.042Z" fill="white"/>
<path opacity="0.4" d="M100.266 97.9904H91.5591V119.68H100.266V97.9904Z" fill="white"/>
<path opacity="0.3" d="M99.611 101.605H92.877V119.68H99.611V101.605Z" fill="#407BFF"/>
<path opacity="0.4" d="M105.762 120.536V97.1345H102.417V120.536H105.762Z" fill="white"/>
<path opacity="0.4" d="M105.762 109.549V108.122H102.417V109.549H105.762Z" fill="white"/>
<path opacity="0.4" d="M104.986 97.9904H103.193V119.68H104.986V97.9904Z" fill="white"/>
<path opacity="0.4" d="M89.4087 120.536V97.1343H86.0634V120.536H89.4087Z" fill="white"/>
<path opacity="0.4" d="M89.4087 109.549V108.122H86.0634V109.549H89.4087Z" fill="white"/>
<path opacity="0.4" d="M88.6329 97.9904H86.8394V119.68H88.6329V97.9904Z" fill="white"/>
<path opacity="0.4" d="M119.943 91.3977V67.9958H109.684V91.3977H119.943Z" fill="white"/>
<path opacity="0.1" d="M109.684 91.3976V92.0171H119.943V91.3976H109.684Z" fill="black"/>
<path opacity="0.4" d="M119.943 80.4102V78.9833H109.684V80.4102H119.943Z" fill="white"/>
<path opacity="0.4" d="M119.167 68.8519H110.46V90.5415H119.167V68.8519Z" fill="white"/>
<path opacity="0.3" d="M118.512 72.4669H111.778V90.5414H118.512V72.4669Z" fill="#407BFF"/>
<path opacity="0.1" d="M92.0703 64.4695V63.002H88.062V64.4695H90.0662V65.9367H94.0745V64.4695H92.0703Z" fill="black"/>
<path opacity="0.1" d="M111.462 95.6672V94.2H107.454V95.6672H109.457V97.1344H113.466V95.6672H111.462Z" fill="black"/>
<path opacity="0.1" d="M102.982 62.2683V63.7355H106.99V62.2683H102.982Z" fill="black"/>
<path opacity="0.1" d="M87.4038 124.266V125.733H91.4121V124.266H87.4038Z" fill="black"/>
<path opacity="0.1" d="M97.0337 128.469V129.936H101.042V128.469H97.0337Z" fill="black"/>
<path opacity="0.1" d="M124.723 101.162V102.629H128.731V101.162H124.723Z" fill="black"/>
<path opacity="0.1" d="M121.21 130.39V127.583H120.718V124.776H108.45V127.583H107.958V130.39H107.376V133.196H121.792V130.39H121.21Z" fill="black"/>
<path opacity="0.1" d="M120.719 124.776V100.386H108.451V124.776H120.719Z" fill="#263238"/>
<path opacity="0.3" d="M119.943 101.162H109.227V124.776H119.943V101.162Z" fill="#263238"/>
<g opacity="0.6">
<path d="M114.291 103.68H111.02V106.951H114.291V103.68Z" fill="#407BFF"/>
<path d="M118.151 103.68H114.879V106.951H118.151V103.68Z" fill="#407BFF"/>
<path d="M114.291 107.557H111.02V110.828H114.291V107.557Z" fill="#407BFF"/>
<path d="M118.151 107.557H114.879V110.828H118.151V107.557Z" fill="#407BFF"/>
</g>
<path d="M118.388 114.681C118.766 114.681 119.072 114.374 119.072 113.997C119.072 113.619 118.766 113.312 118.388 113.312C118.01 113.312 117.704 113.619 117.704 113.997C117.704 114.374 118.01 114.681 118.388 114.681Z" fill="#407BFF"/>
</svg>
