<svg width="20" height="20" viewBox="0 0 20 20" fill="none" xmlns="http://www.w3.org/2000/svg">
<path d="M9.99984 18.3334C8.84706 18.3334 7.76373 18.1145 6.74984 17.6767C5.73595 17.2389 4.854 16.6453 4.104 15.8959C3.354 15.1459 2.76039 14.2639 2.32317 13.25C1.88595 12.2361 1.66706 11.1528 1.6665 10C1.6665 8.84724 1.88539 7.76391 2.32317 6.75002C2.76095 5.73613 3.35456 4.85419 4.104 4.10419C4.854 3.35419 5.73595 2.76058 6.74984 2.32335C7.76373 1.88613 8.84706 1.66724 9.99984 1.66669C11.1526 1.66669 12.2359 1.88558 13.2498 2.32335C14.2637 2.76113 15.1457 3.35474 15.8957 4.10419C16.6457 4.85419 17.2396 5.73613 17.6773 6.75002C18.1151 7.76391 18.3337 8.84724 18.3332 10C18.3332 11.1528 18.1143 12.2361 17.6765 13.25C17.2387 14.2639 16.6451 15.1459 15.8957 15.8959C15.1457 16.6459 14.2637 17.2397 13.2498 17.6775C12.2359 18.1153 11.1526 18.3339 9.99984 18.3334ZM9.99984 16.6667C11.8609 16.6667 13.4373 16.0209 14.729 14.7292C16.0207 13.4375 16.6665 11.8611 16.6665 10C16.6665 8.13891 16.0207 6.56252 14.729 5.27085C13.4373 3.97919 11.8609 3.33335 9.99984 3.33335C8.13873 3.33335 6.56234 3.97919 5.27067 5.27085C3.979 6.56252 3.33317 8.13891 3.33317 10C3.33317 11.8611 3.979 13.4375 5.27067 14.7292C6.56234 16.0209 8.13873 16.6667 9.99984 16.6667Z" fill="url(#paint0_linear_36_26)"/>
<defs>
<linearGradient id="paint0_linear_36_26" x1="9.99984" y1="1.66669" x2="9.99984" y2="18.3334" gradientUnits="userSpaceOnUse">
<stop stop-color="#B5785C"/>
<stop offset="1" stop-color="#B4B1AC"/>
</linearGradient>
</defs>
</svg>
