<svg width="42" height="47" viewBox="0 0 42 47" fill="none" xmlns="http://www.w3.org/2000/svg">
<path d="M13.6005 33.6959C13.3894 33.7428 13.2956 33.6725 13.1675 33.5318C12.4406 32.7237 10.1173 29.8863 9.48595 29.1124C9.3687 28.9717 9.44987 28.8184 9.54367 28.7372C14.2336 25.0791 19.452 19.8967 22.3598 16.1917C22.4175 16.1087 22.3706 16.1087 22.3237 16.1213C17.2586 18.3021 5.35881 21.7853 -0.000339508 22.7576V29.5454L20.9745 46.1369L41.9854 29.558V22.1371C35.479 26.0044 20.4243 31.9967 13.6005 33.6959Z" fill="#0172F7"/>
<path d="M30.6738 5.1806C30.8488 5.0868 30.9913 5.11025 31.132 5.25094L35.0481 9.91743C35.1527 10.0473 35.1653 10.1177 35.0246 10.3161C31.9978 14.7481 25.8197 21.6549 21.8802 24.5735C21.8098 24.6204 21.8333 24.6799 21.9163 24.6438C26.0199 23.3072 37.6853 18.289 42 15.8502L42 2.28882e-05L0.0124435 2.28882e-05L0.0124435 15.264C5.73417 14.2917 22.8759 9.19049 30.6738 5.1806Z" fill="#0172F7"/>
</svg>
